<svg width="151" height="20" viewBox="0 0 151 20" fill="none" xmlns="http://www.w3.org/2000/svg">
<path d="M6.775 16.375C7.4 16.375 7.925 16.3 8.35 16.15C8.775 16 9.1125 15.8 9.3625 15.55C9.62083 15.3 9.80417 15.0083 9.9125 14.675C10.0292 14.3417 10.0875 13.9875 10.0875 13.6125C10.0875 13.2208 10.025 12.8708 9.9 12.5625C9.775 12.2458 9.57917 11.9792 9.3125 11.7625C9.04583 11.5375 8.7 11.3667 8.275 11.25C7.85833 11.1333 7.35417 11.075 6.7625 11.075H3.375V16.375H6.775ZM3.375 3.525V8.75H6.05C7.2 8.75 8.06667 8.54167 8.65 8.125C9.24167 7.70833 9.5375 7.04583 9.5375 6.1375C9.5375 5.19583 9.27083 4.525 8.7375 4.125C8.20417 3.725 7.37083 3.525 6.2375 3.525H3.375ZM6.2375 0.924999C7.42083 0.924999 8.43333 1.0375 9.275 1.2625C10.1167 1.4875 10.8042 1.80833 11.3375 2.225C11.8792 2.64167 12.275 3.14583 12.525 3.7375C12.775 4.32917 12.9 4.99583 12.9 5.7375C12.9 6.1625 12.8375 6.57083 12.7125 6.9625C12.5875 7.34583 12.3917 7.70833 12.125 8.05C11.8667 8.38333 11.5333 8.6875 11.125 8.9625C10.725 9.2375 10.2458 9.47083 9.6875 9.6625C12.1708 10.2208 13.4125 11.5625 13.4125 13.6875C13.4125 14.4542 13.2667 15.1625 12.975 15.8125C12.6833 16.4625 12.2583 17.025 11.7 17.5C11.1417 17.9667 10.4542 18.3333 9.6375 18.6C8.82083 18.8667 7.8875 19 6.8375 19H0.0125002V0.924999H6.2375ZM22.5598 13.525C21.6681 13.5667 20.9181 13.6458 20.3098 13.7625C19.7014 13.8708 19.2139 14.0125 18.8473 14.1875C18.4806 14.3625 18.2181 14.5667 18.0598 14.8C17.9014 15.0333 17.8223 15.2875 17.8223 15.5625C17.8223 16.1042 17.9806 16.4917 18.2973 16.725C18.6223 16.9583 19.0431 17.075 19.5598 17.075C20.1931 17.075 20.7389 16.9625 21.1973 16.7375C21.6639 16.5042 22.1181 16.1542 22.5598 15.6875V13.525ZM15.4848 7.9625C16.9598 6.6125 18.7348 5.9375 20.8098 5.9375C21.5598 5.9375 22.2306 6.0625 22.8223 6.3125C23.4139 6.55417 23.9139 6.89583 24.3223 7.3375C24.7306 7.77083 25.0389 8.29167 25.2473 8.9C25.4639 9.50833 25.5723 10.175 25.5723 10.9V19H24.1723C23.8806 19 23.6556 18.9583 23.4973 18.875C23.3389 18.7833 23.2139 18.6042 23.1223 18.3375L22.8473 17.4125C22.5223 17.7042 22.2056 17.9625 21.8973 18.1875C21.5889 18.4042 21.2681 18.5875 20.9348 18.7375C20.6014 18.8875 20.2431 19 19.8598 19.075C19.4848 19.1583 19.0681 19.2 18.6098 19.2C18.0681 19.2 17.5681 19.1292 17.1098 18.9875C16.6514 18.8375 16.2556 18.6167 15.9223 18.325C15.5889 18.0333 15.3306 17.6708 15.1473 17.2375C14.9639 16.8042 14.8723 16.3 14.8723 15.725C14.8723 15.4 14.9264 15.0792 15.0348 14.7625C15.1431 14.4375 15.3181 14.1292 15.5598 13.8375C15.8098 13.5458 16.1306 13.2708 16.5223 13.0125C16.9139 12.7542 17.3931 12.5292 17.9598 12.3375C18.5348 12.1458 19.2014 11.9917 19.9598 11.875C20.7181 11.75 21.5848 11.675 22.5598 11.65V10.9C22.5598 10.0417 22.3764 9.40833 22.0098 9C21.6431 8.58333 21.1139 8.375 20.4223 8.375C19.9223 8.375 19.5056 8.43333 19.1723 8.55C18.8473 8.66667 18.5598 8.8 18.3098 8.95C18.0598 9.09167 17.8306 9.22083 17.6223 9.3375C17.4223 9.45417 17.1973 9.5125 16.9473 9.5125C16.7306 9.5125 16.5473 9.45833 16.3973 9.35C16.2473 9.23333 16.1264 9.1 16.0348 8.95L15.4848 7.9625ZM31.3676 7.75C31.6259 7.49167 31.8967 7.25417 32.1801 7.0375C32.4717 6.8125 32.7759 6.625 33.0926 6.475C33.4176 6.31667 33.7634 6.19583 34.1301 6.1125C34.4967 6.02083 34.8967 5.975 35.3301 5.975C36.0301 5.975 36.6509 6.09583 37.1926 6.3375C37.7342 6.57083 38.1842 6.90417 38.5426 7.3375C38.9092 7.7625 39.1842 8.275 39.3676 8.875C39.5592 9.46667 39.6551 10.1208 39.6551 10.8375V19H36.5676V10.8375C36.5676 10.0542 36.3884 9.45 36.0301 9.025C35.6717 8.59167 35.1259 8.375 34.3926 8.375C33.8592 8.375 33.3592 8.49583 32.8926 8.7375C32.4259 8.97917 31.9842 9.30833 31.5676 9.725V19H28.4801V6.175H30.3676C30.7676 6.175 31.0301 6.3625 31.1551 6.7375L31.3676 7.75ZM45.6789 0.424999V11.0625H46.2539C46.4622 11.0625 46.6247 11.0375 46.7414 10.9875C46.8664 10.9292 46.9914 10.8167 47.1164 10.65L50.3039 6.7125C50.4372 6.5375 50.5831 6.40417 50.7414 6.3125C50.9081 6.22083 51.1206 6.175 51.3789 6.175H54.2039L50.2164 10.9375C49.9331 11.3125 49.6247 11.6 49.2914 11.8C49.4664 11.925 49.6206 12.0708 49.7539 12.2375C49.8956 12.4042 50.0289 12.5833 50.1539 12.775L54.4289 19H51.6414C51.3997 19 51.1914 18.9625 51.0164 18.8875C50.8414 18.8042 50.6956 18.6583 50.5789 18.45L47.3039 13.5875C47.1872 13.3958 47.0664 13.2708 46.9414 13.2125C46.8164 13.1542 46.6289 13.125 46.3789 13.125H45.6789V19H42.5914V0.424999H45.6789ZM74.3807 3.6875H68.9307V19H65.5682V3.6875H60.1182V0.924999H74.3807V3.6875ZM76.6563 8.4C77.0563 7.63333 77.5313 7.03333 78.0813 6.6C78.6313 6.15833 79.2813 5.9375 80.0312 5.9375C80.6229 5.9375 81.0979 6.06667 81.4563 6.325L81.2563 8.6375C81.2146 8.7875 81.1521 8.89583 81.0688 8.9625C80.9938 9.02083 80.8896 9.05 80.7563 9.05C80.6313 9.05 80.4438 9.02917 80.1938 8.9875C79.9521 8.94583 79.7146 8.925 79.4813 8.925C79.1396 8.925 78.8354 8.975 78.5688 9.075C78.3021 9.175 78.0604 9.32083 77.8438 9.5125C77.6354 9.69583 77.4479 9.92083 77.2813 10.1875C77.1229 10.4542 76.9729 10.7583 76.8313 11.1V19H73.7438V6.175H75.5563C75.8729 6.175 76.0938 6.23333 76.2188 6.35C76.3438 6.45833 76.4271 6.65833 76.4688 6.95L76.6563 8.4ZM89.674 13.525C88.7824 13.5667 88.0324 13.6458 87.424 13.7625C86.8157 13.8708 86.3282 14.0125 85.9615 14.1875C85.5949 14.3625 85.3324 14.5667 85.174 14.8C85.0157 15.0333 84.9365 15.2875 84.9365 15.5625C84.9365 16.1042 85.0949 16.4917 85.4115 16.725C85.7365 16.9583 86.1574 17.075 86.674 17.075C87.3074 17.075 87.8532 16.9625 88.3115 16.7375C88.7782 16.5042 89.2324 16.1542 89.674 15.6875V13.525ZM82.599 7.9625C84.074 6.6125 85.849 5.9375 87.924 5.9375C88.674 5.9375 89.3449 6.0625 89.9365 6.3125C90.5282 6.55417 91.0282 6.89583 91.4365 7.3375C91.8449 7.77083 92.1532 8.29167 92.3615 8.9C92.5782 9.50833 92.6865 10.175 92.6865 10.9V19H91.2865C90.9949 19 90.7699 18.9583 90.6115 18.875C90.4532 18.7833 90.3282 18.6042 90.2365 18.3375L89.9615 17.4125C89.6365 17.7042 89.3199 17.9625 89.0115 18.1875C88.7032 18.4042 88.3824 18.5875 88.049 18.7375C87.7157 18.8875 87.3574 19 86.974 19.075C86.599 19.1583 86.1824 19.2 85.724 19.2C85.1824 19.2 84.6824 19.1292 84.224 18.9875C83.7657 18.8375 83.3699 18.6167 83.0365 18.325C82.7032 18.0333 82.4449 17.6708 82.2615 17.2375C82.0782 16.8042 81.9865 16.3 81.9865 15.725C81.9865 15.4 82.0407 15.0792 82.149 14.7625C82.2574 14.4375 82.4324 14.1292 82.674 13.8375C82.924 13.5458 83.2449 13.2708 83.6365 13.0125C84.0282 12.7542 84.5074 12.5292 85.074 12.3375C85.649 12.1458 86.3157 11.9917 87.074 11.875C87.8324 11.75 88.699 11.675 89.674 11.65V10.9C89.674 10.0417 89.4907 9.40833 89.124 9C88.7574 8.58333 88.2282 8.375 87.5365 8.375C87.0365 8.375 86.6199 8.43333 86.2865 8.55C85.9615 8.66667 85.674 8.8 85.424 8.95C85.174 9.09167 84.9449 9.22083 84.7365 9.3375C84.5365 9.45417 84.3115 9.5125 84.0615 9.5125C83.8449 9.5125 83.6615 9.45833 83.5115 9.35C83.3615 9.23333 83.2407 9.1 83.149 8.95L82.599 7.9625ZM98.4818 7.75C98.7402 7.49167 99.011 7.25417 99.2943 7.0375C99.586 6.8125 99.8902 6.625 100.207 6.475C100.532 6.31667 100.878 6.19583 101.244 6.1125C101.611 6.02083 102.011 5.975 102.444 5.975C103.144 5.975 103.765 6.09583 104.307 6.3375C104.849 6.57083 105.299 6.90417 105.657 7.3375C106.024 7.7625 106.299 8.275 106.482 8.875C106.674 9.46667 106.769 10.1208 106.769 10.8375V19H103.682V10.8375C103.682 10.0542 103.503 9.45 103.144 9.025C102.786 8.59167 102.24 8.375 101.507 8.375C100.974 8.375 100.474 8.49583 100.007 8.7375C99.5402 8.97917 99.0985 9.30833 98.6818 9.725V19H95.5943V6.175H97.4818C97.8818 6.175 98.1443 6.3625 98.2693 6.7375L98.4818 7.75ZM117.531 8.675C117.447 8.80833 117.36 8.90417 117.268 8.9625C117.176 9.0125 117.06 9.0375 116.918 9.0375C116.768 9.0375 116.606 8.99583 116.431 8.9125C116.264 8.82917 116.068 8.7375 115.843 8.6375C115.618 8.52917 115.36 8.43333 115.068 8.35C114.785 8.26667 114.447 8.225 114.056 8.225C113.447 8.225 112.968 8.35417 112.618 8.6125C112.276 8.87083 112.106 9.20833 112.106 9.625C112.106 9.9 112.193 10.1333 112.368 10.325C112.551 10.5083 112.789 10.6708 113.081 10.8125C113.381 10.9542 113.718 11.0833 114.093 11.2C114.468 11.3083 114.847 11.4292 115.231 11.5625C115.622 11.6958 116.006 11.85 116.381 12.025C116.756 12.1917 117.089 12.4083 117.381 12.675C117.681 12.9333 117.918 13.2458 118.093 13.6125C118.276 13.9792 118.368 14.4208 118.368 14.9375C118.368 15.5542 118.256 16.125 118.031 16.65C117.814 17.1667 117.489 17.6167 117.056 18C116.622 18.375 116.085 18.6708 115.443 18.8875C114.81 19.0958 114.076 19.2 113.243 19.2C112.801 19.2 112.368 19.1583 111.943 19.075C111.526 19 111.122 18.8917 110.731 18.75C110.347 18.6083 109.989 18.4417 109.656 18.25C109.331 18.0583 109.043 17.85 108.793 17.625L109.506 16.45C109.597 16.3083 109.706 16.2 109.831 16.125C109.956 16.05 110.114 16.0125 110.306 16.0125C110.497 16.0125 110.676 16.0667 110.843 16.175C111.018 16.2833 111.218 16.4 111.443 16.525C111.668 16.65 111.931 16.7667 112.231 16.875C112.539 16.9833 112.926 17.0375 113.393 17.0375C113.76 17.0375 114.072 16.9958 114.331 16.9125C114.597 16.8208 114.814 16.7042 114.981 16.5625C115.156 16.4208 115.281 16.2583 115.356 16.075C115.439 15.8833 115.481 15.6875 115.481 15.4875C115.481 15.1875 115.389 14.9417 115.206 14.75C115.031 14.5583 114.793 14.3917 114.493 14.25C114.201 14.1083 113.864 13.9833 113.481 13.875C113.106 13.7583 112.718 13.6333 112.318 13.5C111.926 13.3667 111.539 13.2125 111.156 13.0375C110.781 12.8542 110.443 12.625 110.143 12.35C109.851 12.075 109.614 11.7375 109.431 11.3375C109.256 10.9375 109.168 10.4542 109.168 9.8875C109.168 9.3625 109.272 8.8625 109.481 8.3875C109.689 7.9125 109.993 7.5 110.393 7.15C110.801 6.79167 111.306 6.50833 111.906 6.3C112.514 6.08333 113.214 5.975 114.006 5.975C114.889 5.975 115.693 6.12083 116.418 6.4125C117.143 6.70417 117.747 7.0875 118.231 7.5625L117.531 8.675ZM121.592 19V8.5L120.479 8.325C120.238 8.275 120.042 8.19167 119.892 8.075C119.75 7.95 119.679 7.775 119.679 7.55V6.2875H121.592V5.3375C121.592 4.60417 121.7 3.94583 121.917 3.3625C122.142 2.77917 122.459 2.28333 122.867 1.875C123.284 1.46667 123.788 1.15417 124.379 0.937499C124.971 0.720832 125.638 0.612499 126.379 0.612499C126.971 0.612499 127.521 0.691666 128.029 0.85L127.967 2.4C127.959 2.51667 127.925 2.6125 127.867 2.6875C127.809 2.75417 127.729 2.80833 127.629 2.85C127.538 2.88333 127.429 2.90833 127.304 2.925C127.179 2.93333 127.046 2.9375 126.904 2.9375C126.538 2.9375 126.209 2.97917 125.917 3.0625C125.634 3.1375 125.392 3.275 125.192 3.475C124.992 3.66667 124.838 3.925 124.729 4.25C124.629 4.56667 124.579 4.9625 124.579 5.4375V6.2875H127.917V8.4875H124.679V19H121.592ZM137.573 11.1125C137.573 10.7125 137.514 10.3375 137.398 9.9875C137.289 9.62917 137.123 9.31667 136.898 9.05C136.673 8.78333 136.385 8.575 136.035 8.425C135.693 8.26667 135.293 8.1875 134.835 8.1875C133.943 8.1875 133.239 8.44167 132.723 8.95C132.214 9.45833 131.889 10.1792 131.748 11.1125H137.573ZM131.685 12.975C131.735 13.6333 131.852 14.2042 132.035 14.6875C132.218 15.1625 132.46 15.5583 132.76 15.875C133.06 16.1833 133.414 16.4167 133.823 16.575C134.239 16.725 134.698 16.8 135.198 16.8C135.698 16.8 136.127 16.7417 136.485 16.625C136.852 16.5083 137.168 16.3792 137.435 16.2375C137.71 16.0958 137.948 15.9667 138.148 15.85C138.356 15.7333 138.556 15.675 138.748 15.675C139.006 15.675 139.198 15.7708 139.323 15.9625L140.21 17.0875C139.868 17.4875 139.485 17.825 139.06 18.1C138.635 18.3667 138.189 18.5833 137.723 18.75C137.264 18.9083 136.793 19.0208 136.31 19.0875C135.835 19.1542 135.373 19.1875 134.923 19.1875C134.031 19.1875 133.202 19.0417 132.435 18.75C131.668 18.45 131.002 18.0125 130.435 17.4375C129.868 16.8542 129.423 16.1375 129.098 15.2875C128.773 14.4292 128.61 13.4375 128.61 12.3125C128.61 11.4375 128.752 10.6167 129.035 9.85C129.318 9.075 129.723 8.40417 130.248 7.8375C130.781 7.2625 131.427 6.80833 132.185 6.475C132.952 6.14167 133.814 5.975 134.773 5.975C135.581 5.975 136.327 6.10417 137.01 6.3625C137.693 6.62083 138.281 7 138.773 7.5C139.264 7.99167 139.648 8.6 139.923 9.325C140.206 10.0417 140.348 10.8625 140.348 11.7875C140.348 12.2542 140.298 12.5708 140.198 12.7375C140.098 12.8958 139.906 12.975 139.623 12.975H131.685ZM145.577 8.4C145.977 7.63333 146.452 7.03333 147.002 6.6C147.552 6.15833 148.202 5.9375 148.952 5.9375C149.544 5.9375 150.019 6.06667 150.377 6.325L150.177 8.6375C150.135 8.7875 150.073 8.89583 149.99 8.9625C149.915 9.02083 149.81 9.05 149.677 9.05C149.552 9.05 149.365 9.02917 149.115 8.9875C148.873 8.94583 148.635 8.925 148.402 8.925C148.06 8.925 147.756 8.975 147.49 9.075C147.223 9.175 146.981 9.32083 146.765 9.5125C146.556 9.69583 146.369 9.92083 146.202 10.1875C146.044 10.4542 145.894 10.7583 145.752 11.1V19H142.665V6.175H144.477C144.794 6.175 145.015 6.23333 145.14 6.35C145.265 6.45833 145.348 6.65833 145.39 6.95L145.577 8.4Z" fill="white"/>
</svg>
