<svg width="56" height="56" viewBox="0 0 56 56" fill="none" xmlns="http://www.w3.org/2000/svg">
<rect x="4" y="4" width="48" height="48" rx="24" fill="#D1FADF"/>
<path d="M37.75 16H18.25C17.0073 16 16 17.3431 16 19V37C16 38.6569 17.0073 40 18.25 40H37.75C38.9927 40 40 38.6569 40 37V19C40 17.3431 38.9927 16 37.75 16ZM37.75 19V21.5503C36.699 22.6915 35.0234 24.466 31.4412 28.2059C30.6518 29.0339 29.0881 31.0229 28 30.9998C26.9121 31.0232 25.3479 29.0336 24.5588 28.2059C20.9772 24.4666 19.3012 22.6917 18.25 21.5503V19H37.75ZM18.25 37V25.3999C19.3241 26.5406 20.8473 28.1413 23.169 30.5653C24.1935 31.6406 25.9877 34.0144 28 33.9999C30.0024 34.0144 31.7739 31.675 32.8306 30.5658C35.1522 28.1418 36.6759 26.5407 37.75 25.3999V37H18.25Z" fill="#0F771A"/>
<rect x="4" y="4" width="48" height="48" rx="24" stroke="#ECFDF3" stroke-width="8"/>
</svg>
