<svg width="78" height="30" viewBox="0 0 78 30" fill="none" xmlns="http://www.w3.org/2000/svg">
<path d="M44.9666 16.0125C45.5833 16.0125 46.1208 15.9375 46.5791 15.7875C47.0374 15.6292 47.4166 15.4083 47.7166 15.125C48.0249 14.8333 48.2541 14.4833 48.4041 14.075C48.5541 13.6583 48.6291 13.1958 48.6291 12.6875C48.6291 12.2042 48.5541 11.7667 48.4041 11.375C48.2541 10.9833 48.0291 10.65 47.7291 10.375C47.4291 10.1 47.0499 9.89167 46.5916 9.75C46.1333 9.6 45.5916 9.525 44.9666 9.525H42.4541V16.0125H44.9666ZM44.9666 6.925C46.1749 6.925 47.2208 7.06667 48.1041 7.35C48.9874 7.63333 49.7166 8.02917 50.2916 8.5375C50.8666 9.04583 51.2916 9.65417 51.5666 10.3625C51.8499 11.0708 51.9916 11.8458 51.9916 12.6875C51.9916 13.5625 51.8458 14.3667 51.5541 15.1C51.2624 15.825 50.8249 16.45 50.2416 16.975C49.6583 17.5 48.9249 17.9083 48.0416 18.2C47.1666 18.4917 46.1416 18.6375 44.9666 18.6375H42.4541V25H39.0916V6.925H44.9666ZM60.467 19.525C59.5753 19.5667 58.8253 19.6458 58.217 19.7625C57.6087 19.8708 57.1212 20.0125 56.7545 20.1875C56.3878 20.3625 56.1253 20.5667 55.967 20.8C55.8087 21.0333 55.7295 21.2875 55.7295 21.5625C55.7295 22.1042 55.8878 22.4917 56.2045 22.725C56.5295 22.9583 56.9503 23.075 57.467 23.075C58.1003 23.075 58.6462 22.9625 59.1045 22.7375C59.5712 22.5042 60.0253 22.1542 60.467 21.6875V19.525ZM53.392 13.9625C54.867 12.6125 56.642 11.9375 58.717 11.9375C59.467 11.9375 60.1378 12.0625 60.7295 12.3125C61.3212 12.5542 61.8212 12.8958 62.2295 13.3375C62.6378 13.7708 62.9462 14.2917 63.1545 14.9C63.3712 15.5083 63.4795 16.175 63.4795 16.9V25H62.0795C61.7878 25 61.5628 24.9583 61.4045 24.875C61.2462 24.7833 61.1212 24.6042 61.0295 24.3375L60.7545 23.4125C60.4295 23.7042 60.1128 23.9625 59.8045 24.1875C59.4962 24.4042 59.1753 24.5875 58.842 24.7375C58.5087 24.8875 58.1503 25 57.767 25.075C57.392 25.1583 56.9753 25.2 56.517 25.2C55.9753 25.2 55.4753 25.1292 55.017 24.9875C54.5587 24.8375 54.1628 24.6167 53.8295 24.325C53.4962 24.0333 53.2378 23.6708 53.0545 23.2375C52.8712 22.8042 52.7795 22.3 52.7795 21.725C52.7795 21.4 52.8337 21.0792 52.942 20.7625C53.0503 20.4375 53.2253 20.1292 53.467 19.8375C53.717 19.5458 54.0378 19.2708 54.4295 19.0125C54.8212 18.7542 55.3003 18.5292 55.867 18.3375C56.442 18.1458 57.1087 17.9917 57.867 17.875C58.6253 17.75 59.492 17.675 60.467 17.65V16.9C60.467 16.0417 60.2837 15.4083 59.917 15C59.5503 14.5833 59.0212 14.375 58.3295 14.375C57.8295 14.375 57.4128 14.4333 57.0795 14.55C56.7545 14.6667 56.467 14.8 56.217 14.95C55.967 15.0917 55.7378 15.2208 55.5295 15.3375C55.3295 15.4542 55.1045 15.5125 54.8545 15.5125C54.6378 15.5125 54.4545 15.4583 54.3045 15.35C54.1545 15.2333 54.0337 15.1 53.942 14.95L53.392 13.9625ZM77.6711 12.175L70.6836 28.525C70.5919 28.7417 70.4711 28.9042 70.3211 29.0125C70.1794 29.1292 69.9586 29.1875 69.6586 29.1875H67.3586L69.7586 24.0375L64.5711 12.175H67.2836C67.5253 12.175 67.7128 12.2333 67.8461 12.35C67.9878 12.4667 68.0919 12.6 68.1586 12.75L70.8836 19.4C70.9753 19.625 71.0503 19.85 71.1086 20.075C71.1753 20.3 71.2378 20.5292 71.2961 20.7625C71.3711 20.5292 71.4461 20.3 71.5211 20.075C71.5961 19.8417 71.6794 19.6125 71.7711 19.3875L74.3461 12.75C74.4128 12.5833 74.5211 12.4458 74.6711 12.3375C74.8294 12.2292 75.0044 12.175 75.1961 12.175H77.6711Z" fill="#9FA2B4"/>
<path d="M29.7083 12.0623H28.5V12H15V18H23.4773C22.2405 21.4928 18.9173 24 15 24C10.0298 24 6 19.9702 6 15C6 10.0298 10.0298 6 15 6C17.2943 6 19.3815 6.8655 20.9708 8.27925L25.2135 4.0365C22.5345 1.53975 18.951 0 15 0C6.71625 0 0 6.71625 0 15C0 23.2838 6.71625 30 15 30C23.2838 30 30 23.2838 30 15C30 13.9943 29.8965 13.0125 29.7083 12.0623Z" fill="#FFC107"/>
<path d="M1.72949 8.01825L6.65774 11.6325C7.99124 8.331 11.2207 6 15 6C17.2942 6 19.3815 6.8655 20.9707 8.27925L25.2135 4.0365C22.5345 1.53975 18.951 0 15 0C9.23849 0 4.24199 3.25275 1.72949 8.01825Z" fill="#FF3D00"/>
<path d="M15.0001 30C18.8746 30 22.3951 28.5173 25.0569 26.106L20.4144 22.1775C18.9084 23.3183 17.0364 24 15.0001 24C11.0986 24 7.78586 21.5123 6.53786 18.0405L1.64636 21.8093C4.12886 26.667 9.17036 30 15.0001 30Z" fill="#4CAF50"/>
<path d="M29.7083 12.0623H28.5V12H15V18H23.4773C22.8833 19.6777 21.804 21.1245 20.412 22.1782C20.4127 22.1775 20.4135 22.1775 20.4142 22.1768L25.0568 26.1052C24.7283 26.4037 30 22.5 30 15C30 13.9943 29.8965 13.0125 29.7083 12.0623Z" fill="#1976D2"/>
</svg>
