<svg width="200" height="70" viewBox="0 0 200 70" fill="none" xmlns="http://www.w3.org/2000/svg">
<g clip-path="url(#clip0_2_682)">
<mask id="mask0_2_682" style="mask-type:luminance" maskUnits="userSpaceOnUse" x="146" y="3" width="53" height="35">
<path d="M147.98 27.2C150.693 32.289 157.201 34.5855 163.924 30.9195C165.59 29.9926 167.173 28.9309 168.657 27.7455C170.369 29.817 172.065 31.8808 173.934 33.5212C181.751 40.4871 190.158 38.0342 194.825 31.1941C196.797 28.2116 198.003 24.8094 198.343 21.2755C198.585 18.9027 198.42 16.5071 197.854 14.1875C196.545 8.90008 193.121 4.32225 187.45 3.76909C183.873 3.42194 181.079 4.69992 176.599 8.79326C174.321 10.8762 172.069 13.2109 169.912 15.3815C165.725 11.5781 161.817 9.79275 158.42 9.81946C156.1 9.84909 153.839 10.5412 151.918 11.8102C149.996 13.0793 148.496 14.8698 147.605 16.9609C147.141 18.041 146.844 19.1828 146.726 20.3485C146.448 22.7079 146.884 25.0951 147.98 27.2152M163.224 21.8515C161.035 23.8696 158.565 25.9411 155.915 27.1122C153.046 24.4418 152.936 19.9288 155.434 16.8579C157.881 17.6895 160.504 19.3299 163.24 21.8363L163.224 21.8515ZM188.012 21.7104C187.501 24.7735 185.846 27.5432 183.365 29.4851C180.629 27.4594 178.049 24.5029 175.477 21.4739C178.941 17.9413 182.314 14.3363 185.64 12.2266C186.665 13.5693 187.405 15.0989 187.815 16.7251C188.225 18.3513 188.298 20.0412 188.028 21.6951L188.012 21.7104Z" fill="white"/>
</mask>
<g mask="url(#mask0_2_682)">
<path d="M148.859 -0.933113L145.058 36.1588L196.5 41.1795L200.3 4.08762L148.859 -0.933113Z" fill="url(#paint0_linear_2_682)"/>
</g>
<mask id="mask1_2_682" style="mask-type:luminance" maskUnits="userSpaceOnUse" x="146" y="16" width="10" height="13">
<path d="M155.434 16.8578C152.936 19.9288 153.046 24.4609 155.915 27.1122C153.386 28.2299 150.705 28.5275 147.98 27.1999C146.884 25.0798 146.448 22.6926 146.726 20.3332C146.844 19.1675 147.141 18.0257 147.605 16.9456C148.905 16.4549 150.284 16.1964 151.678 16.1826C152.959 16.1881 154.229 16.4075 155.434 16.8311" fill="white"/>
</mask>
<g mask="url(#mask1_2_682)">
<path d="M147.199 15.6468L145.927 28.0633L155.709 29.0179L156.981 16.6014L147.199 15.6468Z" fill="url(#paint1_linear_2_682)"/>
</g>
<path fill-rule="evenodd" clip-rule="evenodd" d="M151.678 16.2094C150.576 18.0336 150.068 20.142 150.223 22.2544C150.378 24.3667 151.188 26.3831 152.546 28.0354C150.973 28.1923 149.387 27.9008 147.98 27.1961C146.884 25.076 146.448 22.6888 146.726 20.3294C146.844 19.1638 147.141 18.022 147.605 16.9418C148.905 16.4511 150.284 16.1927 151.678 16.1788" fill="#CF69A6"/>
<path fill-rule="evenodd" clip-rule="evenodd" d="M154.171 19.0399C153.065 18.2692 151.711 17.9143 150.358 18.0405C149.005 18.1666 147.744 18.7654 146.808 19.7266C146.951 18.7769 147.213 17.848 147.589 16.9608C148.889 16.4701 150.269 16.2117 151.662 16.1979C152.943 16.2034 154.213 16.4227 155.418 16.8464C154.884 17.5055 154.458 18.2416 154.156 19.0285" fill="#233A85"/>
<mask id="mask2_2_682" style="mask-type:luminance" maskUnits="userSpaceOnUse" x="147" y="3" width="51" height="30">
<path d="M194.055 10.9754C191.256 9.70882 188.473 10.426 185.671 12.1961C182.329 14.3057 178.956 17.9184 175.508 21.4433C174.727 22.2063 173.968 23.0036 173.191 23.7589C171.753 25.166 170.24 26.4967 168.657 27.7455C167.173 28.9309 165.589 29.9926 163.923 30.9194C157.201 34.5855 150.693 32.289 147.98 27.1999C150.716 28.5275 153.386 28.2299 155.915 27.1122C158.565 25.941 161.051 23.8696 163.239 21.8362C164.22 20.9245 165.147 20.0166 165.999 19.2078C166.679 18.5593 167.371 17.8879 168.082 17.1936C168.684 16.6099 169.294 16.0033 169.911 15.3815C172.069 13.2109 174.32 10.8762 176.599 8.79326C181.078 4.69992 183.873 3.42194 187.449 3.76909C193.121 4.32224 196.545 8.90007 197.838 14.176C196.929 12.7678 195.612 11.6541 194.055 10.9754Z" fill="white"/>
</mask>
<g mask="url(#mask2_2_682)">
<path d="M150.742 0.186533L147.317 33.6211L195.361 38.3097L198.786 4.87516L150.742 0.186533Z" fill="url(#paint2_linear_2_682)"/>
</g>
<path fill-rule="evenodd" clip-rule="evenodd" d="M186.37 7.3436C182.669 8.2172 178.315 12.5967 173.679 17.3004C171.197 19.8067 168.75 22.3436 166.073 24.6325C165.749 24.911 165.42 25.1857 165.096 25.4527C159.233 30.2327 153.315 32.701 147.988 27.1313C149.395 27.8343 150.98 28.1257 152.553 27.9705C153.72 27.8428 154.859 27.5296 155.922 27.0435C158.201 26.0364 160.355 24.3731 162.301 22.6297C162.622 22.3436 162.938 22.0575 163.247 21.7676C165.51 19.6694 167.746 17.5026 169.919 15.3128C172.092 13.1231 174.324 10.8113 176.607 8.72839C181.086 4.63886 183.881 3.35707 187.461 3.70422C193.132 4.25738 196.552 8.83521 197.85 14.1112C195.474 8.15616 190.217 6.43566 186.37 7.3436Z" fill="url(#paint3_linear_2_682)"/>
<path d="M197.842 14.2142C197.842 14.2142 196.572 7.51528 188.993 6.77901C183.208 6.21441 177.819 12.8065 171.729 18.853C170.646 19.9288 160.906 30.1221 155.641 29.8627C155.608 30.0089 155.584 30.1566 155.567 30.3052C155.567 30.3052 159.972 31.1178 169.962 21.1992C170.494 20.6765 173.089 17.9832 175.204 15.8584C180.637 10.3917 184.514 6.79809 189.044 7.21772C194.344 7.70602 196.603 11.7612 197.842 14.2142Z" fill="url(#paint4_linear_2_682)"/>
<mask id="mask3_2_682" style="mask-type:luminance" maskUnits="userSpaceOnUse" x="183" y="10" width="16" height="23">
<path d="M197.838 14.176C198.404 16.4957 198.569 18.8913 198.327 21.264C197.988 24.798 196.781 28.2001 194.809 31.1826C192.906 31.973 190.817 32.237 188.77 31.9456C186.797 31.5423 184.95 30.6886 183.38 29.4545C185.969 27.4207 187.651 24.489 188.076 21.2726C188.5 18.0561 187.635 14.8039 185.659 12.1961C188.462 10.426 191.245 9.70881 194.043 10.9753C195.601 11.6541 196.917 12.7678 197.827 14.176" fill="white"/>
</mask>
<g mask="url(#mask3_2_682)">
<path d="M185.454 9.14915L183.157 31.5717L197.127 32.9351L199.425 10.5125L185.454 9.14915Z" fill="url(#paint5_linear_2_682)"/>
</g>
<path fill-rule="evenodd" clip-rule="evenodd" d="M176.388 20.5278L175.497 21.4433C174.715 22.2063 173.957 23.0036 173.179 23.7589C171.746 25.1657 170.236 26.4964 168.657 27.7455C168.313 28.0163 167.977 28.2757 167.641 28.5084C167.144 27.9095 166.652 27.3106 166.151 26.7193C164.973 25.317 163.705 23.9881 162.356 22.7404L162.294 22.6831C162.614 22.397 162.931 22.1071 163.239 21.821C164.221 20.9092 165.147 20.0013 165.999 19.1926C166.679 18.544 167.371 17.8726 168.082 17.1783C168.684 16.5946 169.294 15.9881 169.911 15.3662L170.807 14.4774C172.255 15.8126 173.615 17.2358 174.879 18.7386L176.388 20.5278Z" fill="#233A85"/>
<mask id="mask4_2_682" style="mask-type:luminance" maskUnits="userSpaceOnUse" x="147" y="9" width="48" height="29">
<path d="M163.239 21.8363C160.503 19.3299 157.881 17.6895 155.422 16.8579C154.217 16.4342 152.947 16.2149 151.666 16.2093C150.273 16.2232 148.893 16.4816 147.593 16.9723C148.485 14.8813 149.984 13.0907 151.906 11.8217C153.828 10.5526 156.088 9.86052 158.408 9.83089C161.817 9.80419 165.729 11.5895 169.9 15.393C171.315 16.6952 172.643 18.0854 173.875 19.555L175.481 21.4624C178.053 24.5143 180.625 27.4632 183.369 29.4736C184.947 30.7101 186.804 31.5626 188.786 31.9609C190.833 32.2523 192.922 31.9883 194.825 31.1979C190.143 38.0341 181.751 40.4871 173.933 33.5212C172.081 31.8693 170.384 29.8169 168.672 27.7455C168.168 27.1427 167.668 26.5323 167.16 25.9334C165.944 24.4907 164.639 23.1224 163.251 21.8363" fill="white"/>
</mask>
<g mask="url(#mask4_2_682)">
<path d="M148.471 8.48548L145.554 36.9549L193.734 41.6568L196.65 13.1874L148.471 8.48548Z" fill="url(#paint6_linear_2_682)"/>
</g>
<path fill-rule="evenodd" clip-rule="evenodd" d="M194.809 31.1941C186.288 39.068 179.21 32.1516 172.233 24.6631C168.086 20.2302 163.634 14.775 158.412 13.4398C155.156 12.6081 150.575 13.5389 147.605 16.9609C148.496 14.8698 149.995 13.0793 151.917 11.8102C153.839 10.5411 156.1 9.84908 158.42 9.81945C161.828 9.79274 165.741 11.5781 169.911 15.3815C171.327 16.6837 172.655 18.074 173.886 19.5435L175.493 21.451C178.065 24.5028 180.637 27.4517 183.38 29.4622C184.954 30.7011 186.807 31.5576 188.786 31.9609C190.833 32.2523 192.922 31.9883 194.825 31.1979" fill="#F9B233"/>
<path fill-rule="evenodd" clip-rule="evenodd" d="M198.425 18.4677C198.103 17.4237 197.497 16.4847 196.671 15.7509C195.844 15.0172 194.83 14.5163 193.734 14.3019C193.358 14.2299 192.976 14.1916 192.593 14.1875C191.67 14.1775 190.756 14.3701 189.919 14.751C189.082 15.132 188.344 15.6917 187.758 16.3886C187.34 14.8752 186.635 13.4518 185.679 12.1923C187.512 11.0478 189.337 10.3268 191.151 10.3306C192.153 10.3348 193.141 10.5536 194.047 10.9715C195.604 11.6503 196.921 12.764 197.831 14.1722C198.174 15.5798 198.37 17.0177 198.417 18.4639" fill="#233A85"/>
<path fill-rule="evenodd" clip-rule="evenodd" d="M152.045 27.3793C153.437 27.1618 154.308 26.5591 154.66 25.5634C154.998 26.1368 155.421 26.6586 155.915 27.1122C154.851 27.5983 153.713 27.9115 152.545 28.0392C150.972 28.1961 149.387 27.9046 147.98 27.2C149.316 27.4735 150.689 27.5341 152.045 27.3793Z" fill="#233A85"/>
<path fill-rule="evenodd" clip-rule="evenodd" d="M189.2 30.8737C190.673 31.3442 192.542 31.451 194.809 31.1941C192.906 31.9845 190.817 32.2485 188.77 31.9571C188.598 31.9304 188.43 31.8923 188.262 31.8579C186.483 31.3992 184.821 30.5846 183.38 29.466C184.169 28.8469 184.882 28.1402 185.503 27.3602C185.776 28.1968 186.256 28.9547 186.901 29.5669C187.546 30.1791 188.336 30.6266 189.2 30.8699" fill="#233A85"/>
<mask id="mask5_2_682" style="mask-type:luminance" maskUnits="userSpaceOnUse" x="147" y="12" width="48" height="23">
<path d="M194.809 31.1941C186.288 39.0679 179.21 32.1516 172.233 24.663C168.086 20.2302 163.634 14.7749 158.412 13.4397C155.156 12.6081 150.575 13.5389 147.605 16.9608C147.671 16.8082 147.742 16.6595 147.812 16.5107C150.783 13.1689 155.305 12.2686 158.529 13.0773C163.771 14.424 168.203 19.8792 172.37 24.3121C176.943 29.2218 181.563 33.8836 186.601 34.2917C191.229 34.6732 194.446 31.3505 194.829 31.1941" fill="white"/>
</mask>
<g mask="url(#mask5_2_682)">
<path d="M148.15 11.5706L145.739 35.1091L193.918 39.811L196.33 16.2725L148.15 11.5706Z" fill="#FABC72"/>
</g>
<path d="M41.2672 63.3992C40.309 63.5579 39.3389 63.6383 38.367 63.6395C35.2818 63.6395 33.0916 62.8155 31.7966 61.1675C30.5015 59.5195 29.8501 57.2827 29.8423 54.4571C29.8423 51.5197 30.5289 49.246 31.9021 47.6362C33.2754 46.0263 35.2792 45.2252 37.9136 45.2328C38.9649 45.2278 40.0136 45.3365 41.0405 45.5571L41.1929 45.5952C41.8773 43.8002 42.8296 42.1136 44.0188 40.5901C41.8761 39.875 39.627 39.5103 37.3625 39.5105C35.299 39.4812 33.2519 39.871 31.351 40.655C29.6248 41.3763 28.0773 42.4509 26.8131 43.806C25.5434 45.1906 24.5682 46.8077 23.9442 48.5632C23.2654 50.4582 22.9269 52.4535 22.9436 54.4609C22.9284 56.4767 23.2316 58.4827 23.8426 60.4083C24.3871 62.1538 25.308 63.7654 26.5434 65.1349C27.8026 66.4944 29.3644 67.5541 31.1087 68.2326C33.1741 69.0165 35.3776 69.395 37.5931 69.3465C39.1543 69.3499 40.7121 69.2043 42.2443 68.9116C42.9674 68.7743 43.6006 68.6255 44.1517 68.4691C42.9424 66.9252 41.9706 65.2172 41.2672 63.3992Z" fill="#452C88"/>
<path d="M9.52139 63.9256C11.3037 63.9256 12.6066 63.7183 13.43 63.3038C13.8283 63.1033 14.1572 62.7925 14.3755 62.4105C14.5938 62.0285 14.6918 61.5921 14.6573 61.156C14.656 60.6906 14.5356 60.2329 14.3069 59.8245C14.0782 59.4161 13.7486 59.0699 13.3479 58.8175C12.4776 58.2046 11.0445 57.5344 9.04845 56.8071C7.90077 56.4047 6.77607 55.9425 5.67922 55.4223C4.72024 54.9735 3.8297 54.3971 3.03309 53.7094C2.27487 53.0502 1.6687 52.2415 1.25467 51.3366C0.796293 50.2608 0.577781 49.1021 0.613653 47.9375C0.613653 45.3282 1.59732 43.2719 3.56466 41.7689C5.532 40.2658 8.20419 39.513 11.5812 39.5105C13.2267 39.5039 14.8688 39.6585 16.4826 39.9721C17.6769 40.1832 18.8529 40.4829 20.0004 40.8686L18.777 46.2094C17.8594 45.8276 16.9084 45.5276 15.9354 45.3129C14.621 45.0241 13.2763 44.8871 11.9291 44.9047C10.7748 44.8586 9.62677 45.0919 8.58723 45.5837C8.18833 45.7737 7.85469 46.0729 7.62704 46.4448C7.39939 46.8167 7.28757 47.2452 7.30521 47.6781C7.29811 48.1077 7.38332 48.5339 7.55536 48.9294C7.75426 49.3281 8.05098 49.6728 8.41916 49.9327C8.92159 50.2963 9.46282 50.6058 10.0334 50.8559C10.8326 51.2155 11.6507 51.5338 12.4841 51.8096C13.8722 52.3011 15.2295 52.8718 16.5491 53.5187C17.5552 54.015 18.4778 54.6582 19.2851 55.4261C19.9925 56.099 20.5373 56.9175 20.8798 57.8218C21.2397 58.8725 21.4102 59.976 21.384 61.0835C21.384 63.7997 20.3535 65.8559 18.2923 67.2522C16.2312 68.6484 13.2893 69.3453 9.46667 69.3427C7.38783 69.3945 5.31084 69.1842 3.28715 68.7171C2.17403 68.4411 1.07676 68.1075 0 67.7176L1.17259 62.228C2.3449 62.6806 3.54448 63.0628 4.76461 63.3725C6.31897 63.7571 7.91794 63.943 9.52139 63.9256Z" fill="#452C88"/>
<path d="M70.6718 54.3885C70.6976 56.4766 70.3579 58.5538 69.6672 60.5304C69.0599 62.2787 68.0944 63.8882 66.8296 65.2608C65.5952 66.5768 64.0848 67.6177 62.4011 68.3127C60.5954 69.053 58.653 69.423 56.6945 69.3999C54.7448 69.4249 52.8109 69.0547 51.0153 68.3127C49.3426 67.6124 47.8422 66.572 46.6142 65.2608C45.3462 63.8858 44.3722 62.2775 43.7492 60.5304C43.0397 58.5577 42.6905 56.4789 42.7173 54.3885C42.69 52.3104 43.0393 50.244 43.7492 48.2847C44.3788 46.5426 45.3626 44.9427 46.6416 43.581C47.8826 42.2819 49.392 41.2547 51.07 40.5672C52.8519 39.8459 54.7656 39.4863 56.6945 39.5105C58.6324 39.4898 60.5546 39.8505 62.3464 40.571C64.0283 41.2495 65.5383 42.278 66.771 43.5848C68.0354 44.9515 69.0104 46.5488 69.6399 48.2847C70.3498 50.244 70.6991 52.3104 70.6718 54.3885ZM63.7652 54.3885C63.7652 51.5655 63.1438 49.3287 61.9008 47.6781C60.6579 46.0276 58.9224 45.2125 56.6945 45.2328C54.4666 45.2328 52.7312 46.0568 51.4883 47.7048C50.2453 49.3528 49.6291 51.5807 49.6395 54.3885C49.6395 57.2521 50.2609 59.5169 51.5039 61.1827C52.1171 61.9614 52.9056 62.5922 53.8083 63.0262C54.711 63.4603 55.7039 63.686 56.7102 63.686C57.7165 63.686 58.7093 63.4603 59.6121 63.0262C60.5148 62.5922 61.3032 61.9614 61.9165 61.1827C63.149 59.5271 63.7652 57.2623 63.7652 54.3885Z" fill="#452C88"/>
<path d="M100.451 54.3884C100.477 56.4766 100.137 58.5538 99.4468 60.5304C98.8395 62.2787 97.874 63.8882 96.6092 65.2608C95.3748 66.5768 93.8644 67.6177 92.1807 68.3127C90.3748 69.0525 88.4325 69.4226 86.4741 69.3999C84.5243 69.4255 82.5903 69.0552 80.7949 68.3127C79.1222 67.6124 77.6218 66.572 76.3938 65.2608C75.1259 63.885 74.1508 62.2771 73.5249 60.5304C72.8186 58.557 72.4708 56.4785 72.4969 54.3884C72.4703 52.3108 72.8182 50.2447 73.5249 48.2847C74.1574 46.5431 75.1424 44.9434 76.4212 43.5809C77.6615 42.281 79.1711 41.2537 80.8496 40.5672C82.6351 39.8443 84.553 39.4847 86.4859 39.5105C88.4237 39.4898 90.3459 39.8505 92.1377 40.571C93.8197 41.2494 95.3296 42.278 96.5623 43.5847C97.8267 44.9515 98.8017 46.5487 99.4312 48.2847C100.137 50.2447 100.482 52.3111 100.451 54.3884ZM93.5448 54.3884C93.5448 51.5654 92.9234 49.3287 91.6804 47.6781C90.4375 46.0275 88.706 45.2124 86.4859 45.2328C84.2579 45.2328 82.5225 46.0568 81.2796 47.7048C80.0366 49.3528 79.4139 51.5807 79.4113 54.3884C79.4113 57.2521 80.034 59.5169 81.2796 61.1827C81.8928 61.9614 82.6813 62.5922 83.584 63.0262C84.4867 63.4602 85.4795 63.686 86.4859 63.686C87.4922 63.686 88.485 63.4602 89.3877 63.0262C90.2905 62.5922 91.0789 61.9614 91.6921 61.1827C92.9351 59.527 93.5565 57.2623 93.5565 54.3884H93.5448Z" fill="#452C88"/>
<path d="M128.894 54.4572C128.925 56.5566 128.576 58.645 127.863 60.6258C127.225 62.3757 126.219 63.9765 124.912 65.3257C123.609 66.6456 122.021 67.6659 120.264 68.3127C118.287 69.0295 116.19 69.3801 114.081 69.3466C111.946 69.3529 109.814 69.1896 107.706 68.8583C106.004 68.6025 104.321 68.2394 102.668 67.771V30.641H109.406V41.1929C110.323 40.7428 111.283 40.38 112.271 40.1095C115.332 39.2955 118.583 39.4954 121.515 40.6779C123.09 41.3567 124.475 42.3956 125.553 43.7069C126.678 45.105 127.519 46.7003 128.031 48.4068C128.624 50.3706 128.916 52.4097 128.894 54.4572ZM121.988 54.3465C121.988 51.549 121.422 49.3389 120.292 47.7163C119.161 46.0937 117.368 45.2786 114.913 45.271C112.96 45.2756 111.049 45.822 109.402 46.8465V63.2046C110.018 63.3368 110.64 63.4374 111.267 63.506C112.182 63.6023 113.102 63.6469 114.022 63.6395C116.508 63.6395 118.462 62.8155 119.885 61.1675C121.308 59.5195 122.009 57.2458 121.988 54.3465Z" fill="#452C88"/>
<path d="M140.456 54.5639C140.41 52.3211 140.797 50.0899 141.597 47.9871C142.268 46.2371 143.296 44.6382 144.619 43.2872C145.846 42.0574 147.326 41.0941 148.961 40.4604C150.563 39.8314 152.273 39.5089 153.999 39.5105C158.01 39.5105 161.137 40.7236 163.38 43.1499C165.624 45.5761 166.747 49.2002 166.749 54.0222C166.749 54.4037 166.749 54.7852 166.722 55.243C166.695 55.7008 166.675 56.1051 166.64 56.4676H147.417C147.6 58.7565 148.426 60.5227 149.895 61.7664C151.365 63.01 153.49 63.6344 156.27 63.6395C157.776 63.6521 159.28 63.5063 160.754 63.2046C161.847 62.9921 162.919 62.6831 163.955 62.2814L164.846 67.6603C164.351 67.8899 163.839 68.0812 163.314 68.2326C162.581 68.4522 161.838 68.6343 161.086 68.7781C160.253 68.9383 159.35 69.0757 158.385 69.1825C157.405 69.2933 156.42 69.3481 155.434 69.3465C153.155 69.3956 150.887 69.0174 148.754 68.2326C146.967 67.5667 145.362 66.5065 144.064 65.1349C142.821 63.7853 141.888 62.192 141.328 60.4617C140.722 58.5525 140.428 56.5623 140.456 54.5639ZM159.999 51.6303C160.002 50.7552 159.871 49.8845 159.608 49.0477C159.372 48.2766 158.984 47.5576 158.467 46.9304C157.966 46.3348 157.34 45.852 156.63 45.5151C155.817 45.1541 154.931 44.978 154.039 45.0001C153.094 44.9786 152.157 45.1733 151.303 45.5685C150.547 45.9329 149.875 46.4414 149.325 47.0639C148.781 47.6918 148.357 48.4103 148.074 49.185C147.779 49.976 147.574 50.7959 147.46 51.6303H159.999Z" fill="#452C88"/>
<path d="M137.99 30.6448H131.275V68.8162H137.99V30.6448Z" fill="#452C88"/>
</g>
<defs>
<linearGradient id="paint0_linear_2_682" x1="158.284" y1="31.0228" x2="190.733" y2="5.19691" gradientUnits="userSpaceOnUse">
<stop stop-color="#CE5D04"/>
<stop offset="1" stop-color="#F59E00"/>
</linearGradient>
<linearGradient id="paint1_linear_2_682" x1="150.633" y1="27.4874" x2="152.291" y2="16.2969" gradientUnits="userSpaceOnUse">
<stop stop-color="#DA61A0"/>
<stop offset="1" stop-color="#233A85"/>
</linearGradient>
<linearGradient id="paint2_linear_2_682" x1="159.852" y1="30.0558" x2="189.677" y2="4.37935" gradientUnits="userSpaceOnUse">
<stop stop-color="#CE5D04"/>
<stop offset="1" stop-color="#F59E00"/>
</linearGradient>
<linearGradient id="paint3_linear_2_682" x1="198.338" y1="18.9128" x2="150.558" y2="13.9679" gradientUnits="userSpaceOnUse">
<stop stop-color="#FABC72"/>
<stop offset="1" stop-color="white" stop-opacity="0"/>
</linearGradient>
<linearGradient id="paint4_linear_2_682" x1="198.2" y1="20.2841" x2="158.193" y2="16.1438" gradientUnits="userSpaceOnUse">
<stop offset="0.19" stop-color="white" stop-opacity="0"/>
<stop offset="0.48" stop-color="white" stop-opacity="0.3"/>
<stop offset="0.94" stop-color="white" stop-opacity="0"/>
</linearGradient>
<linearGradient id="paint5_linear_2_682" x1="193.674" y1="10.7373" x2="188.968" y2="31.9862" gradientUnits="userSpaceOnUse">
<stop stop-color="#233A85"/>
<stop offset="1" stop-color="#DA61A0"/>
</linearGradient>
<linearGradient id="paint6_linear_2_682" x1="187.979" y1="37.7444" x2="151.984" y2="9.3987" gradientUnits="userSpaceOnUse">
<stop stop-color="#CE5D04"/>
<stop offset="1" stop-color="#F59E00"/>
</linearGradient>
<clipPath id="clip0_2_682">
<rect width="200" height="69.4037" fill="white"/>
</clipPath>
</defs>
</svg>
