<svg width="73" height="57" viewBox="0 0 73 57" fill="none" xmlns="http://www.w3.org/2000/svg">
<path d="M13.1228 55.907V52.1841C13.1228 50.7564 12.2539 49.826 10.8276 49.826C10.0786 49.826 9.27705 50.0747 8.71824 50.8747C8.28377 50.1916 7.66953 49.826 6.73318 49.826C6.38505 49.811 6.03861 49.8825 5.72487 50.0341C5.41114 50.1858 5.13989 50.4128 4.9354 50.695V49.9459H3.75635V55.9026H4.9354V52.4942C4.9354 51.4455 5.55563 50.9437 6.42456 50.9437C7.29349 50.9437 7.78938 51.5025 7.78938 52.4942V55.907H8.96843V52.4942C8.96843 51.4455 9.58867 50.9437 10.4576 50.9437C11.3265 50.9437 11.8224 51.5025 11.8224 52.4942V55.907H13.1228ZM32.482 50.0118H30.3097V48.214H29.1336V50.0118H27.8931V51.0605H29.1336V53.8591C29.1336 55.2239 29.6295 56.0314 31.1187 56.0314C31.6828 56.0196 32.2356 55.8705 32.7292 55.5969L32.3561 54.5482C32.0214 54.7574 31.6332 54.8652 31.2385 54.8583C30.6183 54.8583 30.3082 54.4853 30.3082 53.8651V51.0126H32.4805V50.0193L32.482 50.0118ZM43.5264 49.826C43.2052 49.8189 42.8877 49.8952 42.6049 50.0475C42.3221 50.1998 42.0836 50.4229 41.9129 50.695V49.9459H40.7338V55.9026H41.9129V52.5572C41.9129 51.5639 42.4088 50.9437 43.2163 50.9437C43.4887 50.9547 43.7591 50.9964 44.0223 51.068L44.3953 49.9504C44.1108 49.8787 43.8196 49.837 43.5264 49.826ZM26.8354 50.4463C26.2152 50.0118 25.3463 49.826 24.4159 49.826C22.9267 49.826 21.9964 50.5092 21.9964 51.6882C21.9964 52.6815 22.6795 53.2388 23.9814 53.4261L24.6017 53.4875C25.2848 53.6119 25.7193 53.8606 25.7193 54.1707C25.7193 54.6051 25.2234 54.9198 24.2916 54.9198C23.58 54.9344 22.8831 54.7167 22.3065 54.2995L21.6863 55.2299C22.5552 55.8501 23.6099 55.979 24.2331 55.979C25.971 55.979 26.9013 55.1729 26.9013 54.0553C26.9013 53.0066 26.1523 52.5047 24.8534 52.3175L24.2331 52.256C23.6743 52.1946 23.1844 52.0073 23.1844 51.6358C23.1844 51.2013 23.6803 50.8867 24.3635 50.8867C25.1125 50.8867 25.8526 51.1968 26.2257 51.3826L26.8354 50.4463ZM44.8298 52.9287C44.8298 54.7265 46.0088 56.0314 47.9324 56.0314C48.8014 56.0314 49.4216 55.8456 50.0419 55.3482L49.4216 54.4179C48.9825 54.7735 48.4361 54.9704 47.871 54.9767C46.8223 54.9767 46.0088 54.1707 46.0088 52.9916C46.0088 51.8126 46.8118 51.0126 47.871 51.0126C48.4361 51.0188 48.9825 51.2157 49.4216 51.5714L50.0419 50.641C49.4216 50.1451 48.8014 49.9579 47.9324 49.9579C46.0702 49.8335 44.8298 51.1369 44.8298 52.9362V52.9287ZM36.515 49.826C34.7771 49.826 33.5981 51.0665 33.5981 52.9287C33.5981 54.7909 34.8386 56.0314 36.6379 56.0314C37.5132 56.0499 38.368 55.7651 39.0574 55.2254L38.4371 54.3565C37.9386 54.7428 37.3298 54.9601 36.6993 54.9767C35.8933 54.9767 35.0243 54.4808 34.9015 53.4261H39.3076V52.9302C39.3076 51.068 38.1899 49.8275 36.515 49.8275V49.826ZM36.4536 50.9437C37.3225 50.9437 37.9427 51.5025 38.0042 52.4328H34.7786C34.9644 51.5639 35.5277 50.9437 36.4536 50.9437ZM20.3829 52.9287V49.9504H19.2038V50.6995C18.7694 50.1406 18.1551 49.8305 17.2802 49.8305C15.6053 49.8305 14.3633 51.1339 14.3633 52.9332C14.3633 54.7325 15.6038 56.0359 17.2802 56.0359C18.1491 56.0359 18.7694 55.7258 19.2038 55.167V55.916H20.3829V52.9287ZM15.6053 52.9287C15.6053 51.8111 16.2884 50.9437 17.4675 50.9437C18.5851 50.9437 19.2653 51.8126 19.2653 52.9287C19.2653 54.1078 18.5162 54.9138 17.4675 54.9138C16.2884 54.9752 15.6053 54.0448 15.6053 52.9287ZM61.4608 49.826C61.1397 49.8189 60.8221 49.8952 60.5393 50.0475C60.2565 50.1998 60.0181 50.4229 59.8473 50.695V49.9459H58.6682V55.9026H59.8458V52.5572C59.8458 51.5639 60.3417 50.9437 61.1492 50.9437C61.4217 50.9547 61.692 50.9964 61.9552 51.068L62.3282 49.9504C62.0437 49.8787 61.7525 49.837 61.4593 49.826H61.4608ZM56.8689 52.9287V49.9504H55.6899V50.6995C55.2554 50.1406 54.6412 49.8305 53.7663 49.8305C52.0913 49.8305 50.8494 51.1339 50.8494 52.9332C50.8494 54.7325 52.0898 56.0359 53.7663 56.0359C54.6352 56.0359 55.2554 55.7258 55.6899 55.167V55.916H56.8689V52.9287ZM52.0913 52.9287C52.0913 51.8111 52.7745 50.9437 53.9535 50.9437C55.0712 50.9437 55.7513 51.8126 55.7513 52.9287C55.7513 54.1078 55.0022 54.9138 53.9535 54.9138C52.7745 54.9752 52.0913 54.0448 52.0913 52.9287ZM68.8452 52.9287V47.5923H67.6662V50.695C67.2317 50.1362 66.6174 49.826 65.7425 49.826C64.0676 49.826 62.8256 51.1294 62.8256 52.9287C62.8256 54.728 64.0661 56.0314 65.7425 56.0314C66.6114 56.0314 67.2317 55.7213 67.6662 55.1625V55.9115H68.8452V52.9287ZM64.0676 52.9287C64.0676 51.8111 64.7507 50.9437 65.9298 50.9437C67.0474 50.9437 67.7276 51.8126 67.7276 52.9287C67.7276 54.1078 66.9785 54.9138 65.9298 54.9138C64.7492 54.9767 64.0661 54.0463 64.0661 52.9287H64.0676Z" fill="black"/>
<path d="M25.4717 4.77588H47.0032V39.8956H25.4717V4.77588Z" fill="#FF5F00"/>
<path d="M27.6433 22.3375C27.644 18.959 28.4091 15.6244 29.8812 12.5834C31.3533 9.54244 33.4943 6.87391 36.1438 4.77763C32.8487 2.18689 28.8912 0.575555 24.7235 0.127815C20.5559 -0.319925 16.3464 0.413999 12.5762 2.24569C8.80601 4.07738 5.62725 6.93293 3.40331 10.4859C1.17938 14.0389 0 18.1459 0 22.3375C0 26.5291 1.17938 30.6361 3.40331 34.1891C5.62725 37.7421 8.80601 40.5976 12.5762 42.4293C16.3464 44.261 20.5559 44.9949 24.7235 44.5472C28.8912 44.0995 32.8487 42.4881 36.1438 39.8974C33.4943 37.8011 31.3533 35.1326 29.8812 32.0916C28.4091 29.0506 27.644 25.7161 27.6433 22.3375Z" fill="#EB001B"/>
<path d="M72.3203 22.34C72.3233 26.5286 71.1474 30.6334 68.9271 34.1851C66.7068 37.7367 63.5318 40.5918 59.7651 42.4237C55.9984 44.2556 51.7921 44.9905 47.6274 44.5442C43.4627 44.0978 39.5077 42.4884 36.2147 39.8999C38.8649 37.8041 41.0063 35.1357 42.4785 32.0947C43.9507 29.0536 44.7155 25.7187 44.7155 22.34C44.7155 18.9613 43.9507 15.6264 42.4785 12.5854C41.0063 9.54427 38.8649 6.87585 36.2147 4.78012C39.5077 2.19162 43.4627 0.582172 47.6274 0.135851C51.7921 -0.310471 55.9984 0.424355 59.7651 2.25628C63.5318 4.08821 66.7068 6.94328 68.9271 10.4949C71.1474 14.0466 72.3233 18.1514 72.3203 22.34Z" fill="#F79E1B"/>
</svg>
