<svg width="96" height="24" viewBox="0 0 96 24" fill="none" xmlns="http://www.w3.org/2000/svg">
<path d="M5.8875 10.0125C6.50417 10.0125 7.04167 9.9375 7.5 9.7875C7.95833 9.62917 8.3375 9.40833 8.6375 9.125C8.94583 8.83333 9.175 8.48333 9.325 8.075C9.475 7.65833 9.55 7.19583 9.55 6.6875C9.55 6.20417 9.475 5.76667 9.325 5.375C9.175 4.98333 8.95 4.65 8.65 4.375C8.35 4.1 7.97083 3.89167 7.5125 3.75C7.05417 3.6 6.5125 3.525 5.8875 3.525H3.375V10.0125H5.8875ZM5.8875 0.924999C7.09583 0.924999 8.14167 1.06667 9.025 1.35C9.90833 1.63333 10.6375 2.02917 11.2125 2.5375C11.7875 3.04583 12.2125 3.65417 12.4875 4.3625C12.7708 5.07083 12.9125 5.84583 12.9125 6.6875C12.9125 7.5625 12.7667 8.36667 12.475 9.1C12.1833 9.825 11.7458 10.45 11.1625 10.975C10.5792 11.5 9.84583 11.9083 8.9625 12.2C8.0875 12.4917 7.0625 12.6375 5.8875 12.6375H3.375V19H0.0125002V0.924999H5.8875ZM21.3879 13.525C20.4962 13.5667 19.7462 13.6458 19.1379 13.7625C18.5296 13.8708 18.0421 14.0125 17.6754 14.1875C17.3087 14.3625 17.0462 14.5667 16.8879 14.8C16.7296 15.0333 16.6504 15.2875 16.6504 15.5625C16.6504 16.1042 16.8087 16.4917 17.1254 16.725C17.4504 16.9583 17.8712 17.075 18.3879 17.075C19.0212 17.075 19.5671 16.9625 20.0254 16.7375C20.4921 16.5042 20.9462 16.1542 21.3879 15.6875V13.525ZM14.3129 7.9625C15.7879 6.6125 17.5629 5.9375 19.6379 5.9375C20.3879 5.9375 21.0587 6.0625 21.6504 6.3125C22.2421 6.55417 22.7421 6.89583 23.1504 7.3375C23.5587 7.77083 23.8671 8.29167 24.0754 8.9C24.2921 9.50833 24.4004 10.175 24.4004 10.9V19H23.0004C22.7087 19 22.4837 18.9583 22.3254 18.875C22.1671 18.7833 22.0421 18.6042 21.9504 18.3375L21.6754 17.4125C21.3504 17.7042 21.0337 17.9625 20.7254 18.1875C20.4171 18.4042 20.0962 18.5875 19.7629 18.7375C19.4296 18.8875 19.0712 19 18.6879 19.075C18.3129 19.1583 17.8962 19.2 17.4379 19.2C16.8962 19.2 16.3962 19.1292 15.9379 18.9875C15.4796 18.8375 15.0837 18.6167 14.7504 18.325C14.4171 18.0333 14.1587 17.6708 13.9754 17.2375C13.7921 16.8042 13.7004 16.3 13.7004 15.725C13.7004 15.4 13.7546 15.0792 13.8629 14.7625C13.9712 14.4375 14.1462 14.1292 14.3879 13.8375C14.6379 13.5458 14.9587 13.2708 15.3504 13.0125C15.7421 12.7542 16.2212 12.5292 16.7879 12.3375C17.3629 12.1458 18.0296 11.9917 18.7879 11.875C19.5462 11.75 20.4129 11.675 21.3879 11.65V10.9C21.3879 10.0417 21.2046 9.40833 20.8379 9C20.4712 8.58333 19.9421 8.375 19.2504 8.375C18.7504 8.375 18.3337 8.43333 18.0004 8.55C17.6754 8.66667 17.3879 8.8 17.1379 8.95C16.8879 9.09167 16.6587 9.22083 16.4504 9.3375C16.2504 9.45417 16.0254 9.5125 15.7754 9.5125C15.5587 9.5125 15.3754 9.45833 15.2254 9.35C15.0754 9.23333 14.9546 9.1 14.8629 8.95L14.3129 7.9625ZM38.592 6.175L31.6045 22.525C31.5128 22.7417 31.392 22.9042 31.242 23.0125C31.1003 23.1292 30.8795 23.1875 30.5795 23.1875H28.2795L30.6795 18.0375L25.492 6.175H28.2045C28.4462 6.175 28.6337 6.23333 28.767 6.35C28.9087 6.46667 29.0128 6.6 29.0795 6.75L31.8045 13.4C31.8962 13.625 31.9712 13.85 32.0295 14.075C32.0962 14.3 32.1587 14.5292 32.217 14.7625C32.292 14.5292 32.367 14.3 32.442 14.075C32.517 13.8417 32.6003 13.6125 32.692 13.3875L35.267 6.75C35.3337 6.58333 35.442 6.44583 35.592 6.3375C35.7503 6.22917 35.9253 6.175 36.117 6.175H38.592ZM60.6172 0.924999L53.3172 19H50.2797L42.9797 0.924999H45.6797C45.9714 0.924999 46.2089 0.995832 46.3922 1.1375C46.5755 1.27917 46.713 1.4625 46.8047 1.6875L51.0672 12.7125C51.2089 13.0708 51.3422 13.4667 51.4672 13.9C51.6005 14.325 51.7255 14.7708 51.8422 15.2375C51.9422 14.7708 52.0505 14.325 52.1672 13.9C52.2839 13.4667 52.413 13.0708 52.5547 12.7125L56.7922 1.6875C56.8589 1.49583 56.988 1.32083 57.1797 1.1625C57.3797 1.00417 57.6214 0.924999 57.9047 0.924999H60.6172ZM66.8713 13.525C65.9796 13.5667 65.2296 13.6458 64.6213 13.7625C64.013 13.8708 63.5255 14.0125 63.1588 14.1875C62.7921 14.3625 62.5296 14.5667 62.3713 14.8C62.213 15.0333 62.1338 15.2875 62.1338 15.5625C62.1338 16.1042 62.2921 16.4917 62.6088 16.725C62.9338 16.9583 63.3546 17.075 63.8713 17.075C64.5046 17.075 65.0505 16.9625 65.5088 16.7375C65.9755 16.5042 66.4296 16.1542 66.8713 15.6875V13.525ZM59.7963 7.9625C61.2713 6.6125 63.0463 5.9375 65.1213 5.9375C65.8713 5.9375 66.5421 6.0625 67.1338 6.3125C67.7255 6.55417 68.2255 6.89583 68.6338 7.3375C69.0421 7.77083 69.3505 8.29167 69.5588 8.9C69.7755 9.50833 69.8838 10.175 69.8838 10.9V19H68.4838C68.1921 19 67.9671 18.9583 67.8088 18.875C67.6505 18.7833 67.5255 18.6042 67.4338 18.3375L67.1588 17.4125C66.8338 17.7042 66.5171 17.9625 66.2088 18.1875C65.9005 18.4042 65.5796 18.5875 65.2463 18.7375C64.913 18.8875 64.5546 19 64.1713 19.075C63.7963 19.1583 63.3796 19.2 62.9213 19.2C62.3796 19.2 61.8796 19.1292 61.4213 18.9875C60.963 18.8375 60.5671 18.6167 60.2338 18.325C59.9005 18.0333 59.6421 17.6708 59.4588 17.2375C59.2755 16.8042 59.1838 16.3 59.1838 15.725C59.1838 15.4 59.238 15.0792 59.3463 14.7625C59.4546 14.4375 59.6296 14.1292 59.8713 13.8375C60.1213 13.5458 60.4421 13.2708 60.8338 13.0125C61.2255 12.7542 61.7046 12.5292 62.2713 12.3375C62.8463 12.1458 63.513 11.9917 64.2713 11.875C65.0296 11.75 65.8963 11.675 66.8713 11.65V10.9C66.8713 10.0417 66.688 9.40833 66.3213 9C65.9546 8.58333 65.4255 8.375 64.7338 8.375C64.2338 8.375 63.8171 8.43333 63.4838 8.55C63.1588 8.66667 62.8713 8.8 62.6213 8.95C62.3713 9.09167 62.1421 9.22083 61.9338 9.3375C61.7338 9.45417 61.5088 9.5125 61.2588 9.5125C61.0421 9.5125 60.8588 9.45833 60.7088 9.35C60.5588 9.23333 60.438 9.1 60.3463 8.95L59.7963 7.9625ZM84.0754 6.175L77.0879 22.525C76.9962 22.7417 76.8754 22.9042 76.7254 23.0125C76.5837 23.1292 76.3629 23.1875 76.0629 23.1875H73.7629L76.1629 18.0375L70.9754 6.175H73.6879C73.9296 6.175 74.1171 6.23333 74.2504 6.35C74.3921 6.46667 74.4962 6.6 74.5629 6.75L77.2879 13.4C77.3796 13.625 77.4546 13.85 77.5129 14.075C77.5796 14.3 77.6421 14.5292 77.7004 14.7625C77.7754 14.5292 77.8504 14.3 77.9254 14.075C78.0004 13.8417 78.0837 13.6125 78.1754 13.3875L80.7504 6.75C80.8171 6.58333 80.9254 6.44583 81.0754 6.3375C81.2337 6.22917 81.4087 6.175 81.6004 6.175H84.0754ZM92.091 13.525C91.1993 13.5667 90.4493 13.6458 89.841 13.7625C89.2327 13.8708 88.7452 14.0125 88.3785 14.1875C88.0118 14.3625 87.7493 14.5667 87.591 14.8C87.4327 15.0333 87.3535 15.2875 87.3535 15.5625C87.3535 16.1042 87.5118 16.4917 87.8285 16.725C88.1535 16.9583 88.5743 17.075 89.091 17.075C89.7243 17.075 90.2702 16.9625 90.7285 16.7375C91.1952 16.5042 91.6493 16.1542 92.091 15.6875V13.525ZM85.016 7.9625C86.491 6.6125 88.266 5.9375 90.341 5.9375C91.091 5.9375 91.7618 6.0625 92.3535 6.3125C92.9452 6.55417 93.4452 6.89583 93.8535 7.3375C94.2618 7.77083 94.5702 8.29167 94.7785 8.9C94.9952 9.50833 95.1035 10.175 95.1035 10.9V19H93.7035C93.4118 19 93.1868 18.9583 93.0285 18.875C92.8702 18.7833 92.7452 18.6042 92.6535 18.3375L92.3785 17.4125C92.0535 17.7042 91.7368 17.9625 91.4285 18.1875C91.1202 18.4042 90.7993 18.5875 90.466 18.7375C90.1327 18.8875 89.7743 19 89.391 19.075C89.016 19.1583 88.5993 19.2 88.141 19.2C87.5993 19.2 87.0993 19.1292 86.641 18.9875C86.1827 18.8375 85.7868 18.6167 85.4535 18.325C85.1202 18.0333 84.8618 17.6708 84.6785 17.2375C84.4952 16.8042 84.4035 16.3 84.4035 15.725C84.4035 15.4 84.4577 15.0792 84.566 14.7625C84.6743 14.4375 84.8493 14.1292 85.091 13.8375C85.341 13.5458 85.6618 13.2708 86.0535 13.0125C86.4452 12.7542 86.9243 12.5292 87.491 12.3375C88.066 12.1458 88.7327 11.9917 89.491 11.875C90.2493 11.75 91.116 11.675 92.091 11.65V10.9C92.091 10.0417 91.9077 9.40833 91.541 9C91.1743 8.58333 90.6452 8.375 89.9535 8.375C89.4535 8.375 89.0368 8.43333 88.7035 8.55C88.3785 8.66667 88.091 8.8 87.841 8.95C87.591 9.09167 87.3618 9.22083 87.1535 9.3375C86.9535 9.45417 86.7285 9.5125 86.4785 9.5125C86.2618 9.5125 86.0785 9.45833 85.9285 9.35C85.7785 9.23333 85.6577 9.1 85.566 8.95L85.016 7.9625Z" fill="white"/>
</svg>
