<svg width="118" height="32" viewBox="0 0 118 32" fill="none" xmlns="http://www.w3.org/2000/svg">
<path d="M19.8361 1.51585C18.3673 0.506098 16.4506 0 14.0861 0H4.93188C4.20701 0 3.80654 0.362522 3.73046 1.08687L0.0116727 24.4302C-0.0269755 24.6594 0.0303845 24.8691 0.183228 25.0597C0.335198 25.2507 0.52634 25.3457 0.755256 25.3457H5.10344C5.86608 25.3457 6.28526 24.984 6.36221 24.2588L7.39189 17.9656C7.42949 17.6606 7.56363 17.4127 7.79254 17.2217C8.02128 17.0311 8.30738 16.9064 8.65067 16.8492C8.99396 16.7925 9.31766 16.764 9.62334 16.764C9.92816 16.764 10.2903 16.7833 10.7106 16.8212C11.1297 16.8593 11.397 16.8779 11.5115 16.8779C14.7915 16.8779 17.3661 15.9536 19.2354 14.1033C21.1038 12.2536 22.039 9.68879 22.039 6.4079C22.039 4.15774 21.3042 2.52717 19.8361 1.51585ZM15.1161 8.52498C14.9248 9.86017 14.4295 10.737 13.6286 11.1567C12.8275 11.577 11.6832 11.7859 10.1959 11.7859L8.30773 11.8431L9.28058 5.72115C9.35648 5.30197 9.60428 5.09211 10.0242 5.09211H11.1116C12.6365 5.09211 13.7433 5.31193 14.4299 5.74983C15.1161 6.18877 15.345 7.11406 15.1161 8.52498Z" fill="#003087"/>
<path d="M116.442 0H112.208C111.788 0 111.54 0.209855 111.464 0.629564L107.745 24.4304L107.688 24.5447C107.688 24.7364 107.764 24.9167 107.917 25.0884C108.069 25.2598 108.26 25.3457 108.489 25.3457H112.265C112.989 25.3457 113.39 24.984 113.467 24.2588L117.186 0.857779V0.800944C117.186 0.26704 116.937 0 116.442 0Z" fill="#009CDE"/>
<path d="M65.2925 9.21098C65.2925 9.02071 65.2157 8.83919 65.0641 8.6678C64.9111 8.49625 64.7392 8.41003 64.5491 8.41003H60.1435C59.7231 8.41003 59.38 8.6017 59.1137 8.98206L53.0491 17.9079L50.5317 9.3257C50.3402 8.7159 49.921 8.41003 49.2731 8.41003H44.9814C44.7903 8.41003 44.6187 8.49607 44.4671 8.6678C44.3141 8.83919 44.2382 9.02089 44.2382 9.21098C44.2382 9.28792 44.6101 10.4126 45.3537 12.5867C46.0973 14.7613 46.8982 17.1071 47.7565 19.6246C48.6148 22.1417 49.0627 23.4774 49.101 23.629C45.9731 27.9013 44.4097 30.1899 44.4097 30.4946C44.4097 30.9909 44.6573 31.2385 45.1535 31.2385H49.559C49.9784 31.2385 50.3215 31.0482 50.5889 30.6666L65.1785 9.61145C65.2544 9.53573 65.2925 9.40282 65.2925 9.21098Z" fill="#003087"/>
<path d="M106.315 8.41012H101.966C101.432 8.41012 101.109 9.03968 100.994 10.2985C100.002 8.77334 98.1909 8.00964 95.5587 8.00964C92.8124 8.00964 90.4756 9.03968 88.5501 11.0994C86.6236 13.1591 85.6609 15.5817 85.6609 18.3658C85.6609 20.6166 86.3186 22.4091 87.6344 23.7436C88.9504 25.0795 90.7144 25.7462 92.9273 25.7462C94.033 25.7462 95.1582 25.5169 96.3024 25.0596C97.4468 24.6019 98.3424 23.992 98.9919 23.2288C98.9919 23.2671 98.9531 23.4385 98.8773 23.7435C98.8004 24.0491 98.7628 24.2784 98.7628 24.43C98.7628 25.0411 99.0101 25.3453 99.5067 25.3453H103.455C104.178 25.3453 104.599 24.9837 104.713 24.2585L107.059 9.32561C107.096 9.09669 107.039 8.88719 106.887 8.69622C106.734 8.50578 106.544 8.41012 106.315 8.41012ZM98.8487 19.6816C97.876 20.6352 96.7032 21.1117 95.3301 21.1117C94.2235 21.1117 93.3279 20.8071 92.641 20.1964C91.9542 19.5871 91.611 18.7479 91.611 17.679C91.611 16.2686 92.0877 15.0758 93.0415 14.1033C93.994 13.1306 95.1774 12.6443 96.5889 12.6443C97.6558 12.6443 98.5428 12.9591 99.2491 13.5881C99.9542 14.2177 100.308 15.0856 100.308 16.1919C100.308 17.5648 99.8212 18.7285 98.8487 19.6816Z" fill="#009CDE"/>
<path d="M41.3202 8.41012H36.9718C36.4371 8.41012 36.1135 9.03968 35.999 10.2985C34.9691 8.77334 33.1572 8.00964 30.5636 8.00964C27.8173 8.00964 25.4808 9.03968 23.5548 11.0994C21.6284 13.1591 20.6656 15.5817 20.6656 18.3658C20.6656 20.6166 21.3237 22.4091 22.6397 23.7436C23.9556 25.0795 25.7193 25.7462 27.9319 25.7462C28.9993 25.7462 30.1061 25.5169 31.2502 25.0596C32.3944 24.6019 33.3099 23.992 33.9965 23.2288C33.8434 23.6865 33.7675 24.0871 33.7675 24.43C33.7675 25.0411 34.0154 25.3453 34.5113 25.3453H38.459C39.1832 25.3453 39.6032 24.9837 39.7178 24.2585L42.0634 9.32561C42.101 9.09669 42.044 8.88719 41.8919 8.69622C41.7392 8.50578 41.5486 8.41012 41.3202 8.41012ZM33.8536 19.7099C32.8807 20.6455 31.6882 21.1117 30.2778 21.1117C29.171 21.1117 28.2842 20.8071 27.6172 20.1964C26.9494 19.5871 26.6159 18.7479 26.6159 17.679C26.6159 16.2686 27.0924 15.0758 28.0464 14.1033C28.9993 13.1306 30.1818 12.6443 31.5936 12.6443C32.6611 12.6443 33.5479 12.9591 34.2542 13.5881C34.9593 14.2177 35.3126 15.0856 35.3126 16.1919C35.3126 17.6031 34.8263 18.7764 33.8536 19.7099Z" fill="#003087"/>
<path d="M84.831 1.51585C83.3623 0.506098 81.446 0 79.0811 0H69.9841C69.2208 0 68.8011 0.362522 68.7254 1.08687L65.0066 24.4302C64.9679 24.6594 65.0251 24.8691 65.1781 25.0597C65.3296 25.2507 65.5212 25.3457 65.7501 25.3457H70.4414C70.8991 25.3457 71.2041 25.098 71.3569 24.6021L72.387 17.9656C72.4247 17.6606 72.5583 17.4127 72.7874 17.2217C73.0163 17.0311 73.3021 16.9064 73.6457 16.8492C73.9888 16.7925 74.3125 16.764 74.6184 16.764C74.9232 16.764 75.2854 16.7833 75.7051 16.8212C76.1246 16.8593 76.3924 16.8779 76.5061 16.8779C79.7866 16.8779 82.3608 15.9536 84.2301 14.1033C86.099 12.2536 87.0336 9.68879 87.0336 6.4079C87.0337 4.15774 86.2991 2.52717 84.831 1.51585ZM78.9666 10.9278C78.1274 11.4998 76.8686 11.7858 75.1906 11.7858L73.3596 11.8429L74.3325 5.72098C74.408 5.30179 74.6558 5.09194 75.0761 5.09194H76.1056C76.9445 5.09194 77.612 5.13006 78.1086 5.20613C78.6037 5.28291 79.0811 5.52074 79.5388 5.92121C79.9968 6.32168 80.2254 6.90368 80.2254 7.66632C80.2254 9.26856 79.8053 10.3553 78.9666 10.9278Z" fill="#009CDE"/>
</svg>
