<svg width="90" height="30" viewBox="0 0 90 30" fill="none" xmlns="http://www.w3.org/2000/svg">
<path d="M26.2784 29.3886L31.1861 0.588766H39.036L34.1246 29.3886H26.2784ZM62.4856 1.2096C60.9307 0.626134 58.4935 0 55.4502 0C47.6933 0 42.2298 3.90613 42.183 9.50441C42.1393 13.6427 46.0838 15.9514 49.0614 17.3289C52.1171 18.7409 53.1442 19.641 53.1295 20.9013C53.1099 22.832 50.6894 23.7135 48.4329 23.7135C45.2912 23.7135 43.622 23.277 41.0439 22.2022L40.032 21.7445L38.9305 28.1915C40.764 28.9958 44.1544 29.6919 47.6749 29.7281C55.9268 29.7281 61.2836 25.8666 61.3445 19.8881C61.3738 16.6118 59.2825 14.1189 54.7535 12.0632C52.0097 10.7309 50.3294 9.8419 50.3472 8.49283C50.3472 7.29573 51.7695 6.01565 54.8431 6.01565C57.4097 5.97578 59.2696 6.53557 60.7184 7.11904L61.4218 7.45138L62.4856 1.2096ZM82.6863 0.588324H76.6207C74.7417 0.588324 73.3352 1.10118 72.5102 2.97664L60.8518 29.3696H69.095C69.095 29.3696 70.4424 25.821 70.7473 25.0417C71.6481 25.0417 79.656 25.054 80.8007 25.054C81.0355 26.0624 81.7558 29.3696 81.7558 29.3696H89.0399L82.6863 0.587442V0.588324ZM73.0623 19.1855C73.7117 17.5262 76.19 11.1346 76.19 11.1346C76.1439 11.2113 76.8346 9.46719 77.2308 8.38587L77.7613 10.8689C77.7613 10.8689 79.2644 17.7436 79.5786 19.1851H73.0623V19.1855ZM19.6144 0.588324L11.9291 20.2286L11.1104 16.2374C9.6795 11.6364 5.22197 6.65164 0.238647 4.15608L7.26603 29.3427L15.5716 29.3334L27.9301 0.58803L19.6144 0.587884" fill="#0E4595"/>
</svg>
